<svg width="237" height="43" viewBox="0 0 237 43" fill="none" xmlns="http://www.w3.org/2000/svg">
<path d="M52.1547 12.7218C57.6486 10.5573 63.4787 8.52866 69.2914 9.56778C76.3522 10.83 79.0096 14.1927 79 21.2461V30.7461C79 42.9603 58.6886 46.6906 52.4456 35.5663C48.3942 28.3473 45.1621 34.3215 39.6541 34.6639C34.8851 34.9605 31.2765 28.3473 26.8497 35.5663C20.6066 46.6906 0 43.0932 0 30.879V21.5C0 14.7212 3.46868 11.2218 10.502 9.77522C17.0336 8.43183 23.5724 11.0844 29.7864 13.5038C32.9238 14.7253 36.4521 15.714 39.6541 15.714C43.519 15.714 48.2159 14.2736 52.1547 12.7218Z" fill="#888C03"/>
<path d="M49.5513 3.57644C43.3336 18.2699 40.7285 10.1312 40.7285 10.1312C38.8918 2.76951 52.5438 -0.280848 53.8651 0.428704C55.1863 1.13827 54.2964 13.9873 43.0844 12.7015C46.7141 11.1714 48.5914 13.0178 49.5513 3.57644Z" fill="#888C03"/>
<path d="M28.948 5.18095C46.0089 12.7356 35.4445 13.2673 35.4445 13.2673C25.9844 13.3431 24.7198 2.13723 25.8424 1.23783C26.965 0.338421 42.722 3.39938 39.0633 11.9041C37.836 8.7922 40.4697 7.6687 28.948 5.18095Z" fill="#888C03"/>
<path d="M199 42.0001C187.006 42.0001 187 27.8233 187.006 26L187 14.0001C187 4.41402 201.5 2.00011 204 11.0001C208 25.0001 216 25.0001 220 11.0001C222.5 2.00011 237 4.23087 237 14.0001V26C237 31.7985 237 42.0001 225 42.0001H199Z" fill="#888C03"/>
<path d="M84 18.0002C84 11.0002 90 5.00023 97 5.0003H107.979C113.044 5.0003 118.782 6.25671 119.747 11.2294C119.907 12.0514 120 12.9719 120 14.0002C120 17.4356 118.796 19.6668 117.569 21.0482C116.133 22.6655 113.932 23.2114 111.811 23.631L107.281 24.527C105.43 24.893 103.146 25.2114 102.554 27.0026C101.85 29.1289 103.518 32.0002 106.5 32.0002C113 32.0002 113 42.0002 106 42.0002H95C88 42.0002 84 35.5002 84 28.5002V18.0002Z" fill="#888C03"/>
<path d="M162.023 5.00031C172.94 5.00031 182 11.0002 182 21.0002V27.0002C182 34.0002 182 42.0002 173 42.0002C170.824 42.0002 169.24 41.6304 168.087 41.0918C164.864 39.5865 164.321 35.3032 163 32.0002C160.517 25.3793 153.24 24.238 149.104 28.5763C147.247 30.524 146.838 33.3989 145.53 35.7508C143.952 38.5887 140.841 42.0002 135 42.0002C125 42.0002 125 34.0002 125 27.0002V16.6304C125 10.0002 130.207 5.00031 136.63 5.00031H162.023Z" fill="#888C03"/>
</svg>
